<svg xmlns="http://www.w3.org/2000/svg" viewBox="0 0 207.8 184"><defs><style>.cls-1{fill:#04a57a;}</style></defs><title>Asset 7</title><g id="Layer_2" data-name="Layer 2"><g id="Layer_1-2" data-name="Layer 1"><path class="cls-1" d="M171.9,113.2c-.3-1.3-1-2.8-.7-4a3.1,3.1,0,0,0-.6-3c-1.9-2.4-4.1-4.7-4.7-8a8.7,8.7,0,0,0-.5-2.2c-.7-2,0-4.4-1.9-6a2.2,2.2,0,0,1,.1-1.1c.3-1,.7-1.9,1-2.9s1.8-4.7,1.8-7c-.2-7.1-.7-14.2-1.2-21.3l-1.2-14,6.8,2.6c-1.6-3.1-6-2.1-7.3-5.5,4-1,7.9-1.7,11.6-2.9s7.4-2.4,10.1-5.5c-6.1,1.6-11.9,3.7-17.9,5.2s-12.4,2.2-18.6,3.3l2.6-7.5-.5-.2c-.3.5-.7.9-1,1.5l-8.3,15.1a36,36,0,0,0-2.2,3.7c-1,2.3-1.6,4.7-2.6,6.8a7.3,7.3,0,0,1-2.9,2.6c-.6.4-1.6.1-2.4.1V52a20.1,20.1,0,0,0-1.3,5.9c-.3,1.8-.3,3.6-.5,5.4s-1.1,2.1-3.4,2.1a3,3,0,0,1-3.1-3.2c0-3.9-.1-7.8-.1-11.7a5.4,5.4,0,0,0-.5-1.6c-.3.6-.5.8-.5,1a103.3,103.3,0,0,0-3.3,10.8,18.3,18.3,0,0,0-.2,6.6c.5,3.7,1.1,7.3.4,11.1-.4,2.1-.7,4.3-1.1,6.4-.1.4-.7.7-1.2,1s-.6-.4-.7-.7c-1.6-6.2-3.5-12.3-4.7-18.5-.5-2.3.4-4.9.6-7.4s1.5-6.5.1-10c-1.8,3.2-3.8,6.2-4.8,9.6s-2,9.7-2.9,14.6c-.5,2.6-1.8,4.5-4.7,6.1a45.7,45.7,0,0,1-.3-4.9c.1-1.7.6-3.4.6-5.1s-.3-6.3-.2-9.4a23.5,23.5,0,0,1,1.1-7.5c1.7-4.1,3.9-8.1,6-12a7.8,7.8,0,0,1,2.3-2.5l6.1-4.6c1.1-.9,1.9-2,3-2.8,5.6-3.8,11.1-7.6,16.8-11.1,3.1-1.9,5.9-4.4,9.9-4.2a7,7,0,0,0,3.2-.5l14.4-6.1c.4-.1.7-.5,1.1-.7l-.3-.5-8.4,2.5c-.1,0-.1-.1-.1-.2l4.1-2.4a2.2,2.2,0,0,1-.5-.8c-2.2,1.4-4.6,2.5-6.5,4.2s-2.7,2.2-4.7,2.3a22.8,22.8,0,0,0-6.4,1.3,62,62,0,0,0-6.9,4.4L107.4,37.2a9.6,9.6,0,0,0-2.7,2.6,39.8,39.8,0,0,0-5.3,11.9,52.8,52.8,0,0,0-1.3,10.4c-.1,2.5-.3,4.9-.3,7.4s.1,5.9.2,8.8c.1,1.3.7,2.7,2.1,2.6a5.7,5.7,0,0,0,2.9-1.8,9.4,9.4,0,0,0,2.4-4.9,8.2,8.2,0,0,0,2,1.4l4.3-1.4c1.3,4.1,2.6,8.5,3.8,12.7,2.8-.4,4.3-2,4.4-4.1a80.6,80.6,0,0,0-.2-13c-.3-2.8-1-5.4-.1-8.2s.7-3.5,1.1-5.3l.6-1.8a23,23,0,0,1,.3,5.2c-.4,6.1,1.7,7.3,6.7,7.1a2.9,2.9,0,0,0,2-1.3c.6-1.4,1.6-1.4,2.7-1.4a4,4,0,0,0,2-.3c2.1-1.6,3.7-3.5,3.9-6.3a5.8,5.8,0,0,1,1.2-2.8c2-3.1,4.4-6,6.1-9.2a6.3,6.3,0,0,1,5.2-3.7l10.8-1c.2,1.2.5,2.4.6,3.7.5,8.6,1.1,17.3,1.3,25.9.2,4.3,1,8.6-.5,12.8-.8,2-1.8,3.8-2.6,5.8a7.1,7.1,0,0,0-.3,2.3l-6.3,5c-4-1.5-7.6-3-11.2-4.2-.6-.3-1.5.2-2.3.4,3.7,2.3,7.6,3.1,11.2,6.1-3.4.1-6.3-1.2-9.1.6l5.7.5c-4,2.6-4,2.6-1.4,4.6l-1.1.5-19,7.2a5.6,5.6,0,0,1-2.2.3c-2.9-.7-5.6.2-8.3.5s-5.1,1.8-7.6-.3c-.3-.3-.9-.1-1.4,0l-7.3.7c-.7-1.4-1.1-3.1-2.2-3.7a20.1,20.1,0,0,0-6.9-3c-2.1-.4-4.3.1-6.5.4a5.3,5.3,0,0,0-4.4,3.8c-1.2-2.5-10.6-12.1-12.2-12.8h-.1c-.3,0-6.6-3.7-11.2-3.9a44.7,44.7,0,0,1-18.1-9.3,6.1,6.1,0,0,1-.7-1,3.9,3.9,0,0,0-.8-1.4c-2.1-1.8-4.7-1.6-7.1-1.1a25.5,25.5,0,0,0-7.7,2.9A20.9,20.9,0,0,0,17,89.7a60,60,0,0,0-5.6,9.1c-.9,1.8-1.1,4-1.5,5.8a28.4,28.4,0,0,1-.6-2.9c-1.4,3.4-.3,7.2,2.7,9.8s3.4,2.2,5.5,1.6l-.2-.2.4-11.8,2.2.9c-.3,2.6-.9,11.1-.9,11.1h1l.4-10.9,2.2.9c-.3,3-.9,9.6-.9,9.6l1.6-9.2.9.3,1,.5c-.3,2.7-.8,8.6-.8,8.6l1.5-8.3a25.4,25.4,0,0,0,5.2,2,24.4,24.4,0,0,1,7.7,2.7c-8.6,7.6-18.2,6.3-28.1,4.6a7.7,7.7,0,0,0,2.3,1,52.3,52.3,0,0,0,9.6,1.1c4.1-.1,8.3.2,12-2.2l3.3-2a85.9,85.9,0,0,0-2.6,8.8c-.7,2.9-1.7,5.6-2.2,8.6a133.2,133.2,0,0,0-1.7,28.2,19,19,0,0,0,1.1,3.9h.7a47.8,47.8,0,0,1,.4-6.6,18.4,18.4,0,0,1,2.1-6.1c1.1-2,2.9-3.6,4.4-5.3l10.3-12.9,1.3,1.7c-2.9,3.4-11.7,14.9-14.2,18a27.9,27.9,0,0,0-2.6,4.5c-.3.4-.1,1.1-.1,1.7,2.5-5.9,13.3-18.7,17.2-23.8l1.3,1.6c-1.4,2-5.1,6.9-8.6,11.5h-.1l-.8,1.2h0l-6.9,9.1.6.4,6.4-8.7c1.1,4.3,10.5,20.9,11.9,22.3,3.9,5,8.5,9.2,9.5,9.5,5.8,3.3,18.5,4,28.7,4.2s26.9.8,46.2-1.6a15.6,15.6,0,0,0,9.3-4.8,123.8,123.8,0,0,0,14.4-20l2-3.7c1.4-2.3-.4-5.7-3.1-6.1,1.6,1.7,1.7,3.2.2,3.8a83.4,83.4,0,0,1-19.8,4.8l-10.3,1c-5.9.5-11.8,1.3-17.6,1.4-8.9.1-17.7-.1-26.6-.5s-31.8-4.4-41.9-9.2c.3-.4.4-.6.6-.7l2-1.4c5.5-3.4,11.7-4.8,18-6,10.2-2.1,20.7-2.7,31-4a17.6,17.6,0,0,0-5.1-.4c-5.6.6-11.2,1.1-16.8,1.8a91,91,0,0,0-11.8,2c-6.6,1.6-13.2,3.6-18.6,8.4l-1-1.9c5.1-3.8,11.3-6.1,17.4-7.5,4.4-1.1,8.9-1.7,13.4-2.6s8.9-.8,13.4-1.4,8.5-.4,12.8-.4c9.8-.1,19.6-.1,29.3,1.6,3.6.4,6.5,1.4,10.1,2,5.8,1,9.1,2.8,13.6,4.6,1.9.8,6,3.4,7.8,4.3-4.9-5.8-14.4-8-21.1-10,.1-.9.3-1.8.4-2.7a5.6,5.6,0,0,0-.7,1.8c-.2.3-.7.8-.9.7-2.5-.4-5-1-7.6-1.6l6.1-20.9-.6-.2c-2.1,7-4.2,14-6.4,21l-7.9-.9,5.8-15.9h-.4c-.9,2.4-1.9,4.8-2.8,7l-2.9-3.2c.6-1.8,1.1-3.8,1.7-5.8h-.3c-.7,2-1.3,4-2.1,6.3-2.9-2.2.5-4.1,0-6.2a54,54,0,0,0-2.3,4.9c-1.2-.9-3.2-.9-2.6-3.2a11.8,11.8,0,0,0-1.1,1.5l-.9-1.8a.6.6,0,0,0-.1.4l-10.1-3.7-.2.3.6,1.1.3.4,14,7,2.2.8c1.8.4,2.3,1.4,1.2,3-2,3.1-5.2,4.5-8.6,5a10.6,10.6,0,0,1-11-6.7c-.9-2.3-1.8-4.8-.8-7.4l1-2.4a3.4,3.4,0,0,0-1.7.9,7.3,7.3,0,0,0-1.7,5.9l-4.6,8.3h-.4c1-2.2,5.4-13.2,6.7-16.4h2.8a9.9,9.9,0,0,1,2.4.3c1.4.2,2.7.8,4,.7s4.4-.7,6.6-1l4.8-.3a20.2,20.2,0,0,0,5-.5c6.5-2.3,13-4.8,19.4-7.3a10.7,10.7,0,0,0,2.2-1.5l-1.8-1.9c-.1,0-.1-.2-.1-.1,2.3-1.4,4.6-2.7,6.8-4.2l7-4.8a19.8,19.8,0,0,0,.6,3.3c.9,3.2,1.2,6.4,3.8,8.8a13.3,13.3,0,0,1,4.4,8.7c.7,5.7,2.3,11.2,3.4,16.8.5,2.1.6,4.2.9,6.3.6-2.2,1.2-4.6.8-6.7C174.9,124.7,173.3,119,171.9,113.2ZM110.6,71c.8,2.1-1.7,2.4-2.9,3.4s-1.5-.3-2.3-.3c.4-1.7.5-3.5,1-5.2,1.1-3.6,1.6-7.4,2.5-11a21.7,21.7,0,0,1,1.7-4.2,7.7,7.7,0,0,1,.1,3C110.2,61.5,108.9,66.1,110.6,71ZM75.8,157.8c12.2,2.2,24.5,2.1,36.8,1.8,6.8-.1,13.5-.8,20.3-1.4,5.2-.5,10.5-.8,15.6-1.6a50.5,50.5,0,0,0,5.6-1.2l9.1-2.6a27,27,0,0,1-2.2,4.5c-3.7,5.1-7.4,10.1-11.2,14.9a43.9,43.9,0,0,1-5.7,5.7c-2.6,2.1-5.8,2.7-8.9,3-6.4.6-12.7,1.5-19,1.7s-31.9-.6-40.8-2a30.3,30.3,0,0,1-9.9-3.2c.3-.7.6-2.4.8-3.1h-.1c-.4.6-.9,1.2-1.3,1.9-2.7-.9-1.1-2.6-1-4.1l-1.2,2.4c-2.4-2.1-.1-4.1-.5-6.1-.5,1.3-1,2.5-1.6,3.8-1.1-1.1-1.1-1.4-.2-3.8a18.7,18.7,0,0,0,1.3-4.2c-.9,2-1.9,4-2.8,6.1-2.5-1.7-.2-3.7-.5-5.6-.4,1.3-.9,2.6-1.4,3.9-1.8-1.2-2-2.2-.9-5.3-.6.9-.7,1.4-1.2,2.1-2.4-4.1-7.7-13.2-7.7-14.7C53,153.8,65.3,156.2,75.8,157.8Zm49.8-29.3c-.6,1.7-1.1,3.6-1.7,5.6l-6.9-.7Zm-20.3,1.7.9.6a1.7,1.7,0,0,1,.6,1.2c0,.3-.4.9-.6.9l-2,.2Zm-1.7-1.6,1,1.1-1.5,3.4h-1.4Zm-.6-.9-2.3,5.6H99.5l2.8-6.9A5.4,5.4,0,0,0,103,127.7Zm-1.5-4.7a7.8,7.8,0,0,0,.4,2.1c-1.1,2.6-2.8,6.7-3.4,8.3H97ZM83.3,108.3a4.9,4.9,0,0,1,2.5-1.2,13.6,13.6,0,0,1,11.6,3.1c1.2,1,1.1,4.3-.2,6s-4.2,2.7-5.6,2.8-3.2-.4-4.7-.8C82.6,117.2,80.6,111.7,83.3,108.3Zm1.9,10.9a14.9,14.9,0,0,0,3.7,1.4l-4,9.2h-.1c-.7-1.1-.9-1.8.3-2.9S86.7,121.6,85.2,119.2ZM12.7,102.8c-.1,2.2-.3,4.4-.4,6.8L10,106.2l.3-.3,1.1.6,2.1-8h.7c-.2,1.6-.4,3.2-.6,5.2l-.5-1Zm1.8,7.3-.6.7h-.5l1.2-11.5h.8c-.1,4.4-.6,7.8-.8,10.9Zm1.8,2.2-.8-.5-.4-.4c.3-2.9.8-7.5,1.2-10.9l1,.4C17,103.8,16.5,110.2,16.3,112.3Zm22.1-.4,1.1-1.5c.6,2.1,1.1,3.7,1.7,5.6l-2.7,1.7-.6-.2c.5-1.8.9-3.5,1.4-5.4Zm3.1,4.6.6,1.1c-1.1,1.1-5.2,6.1-6,6.3Zm.6,1.2.7,1.2c-.9,1.1-2.7,2.8-3.2,3.6s-2.1,2.6-3.1,4.1l-.8-.5C36.4,125.3,40.9,119.3,42.1,117.7Zm-3.9,8-.2-.2c1.1-1.7,3.6-4.2,5-6.1a5.6,5.6,0,0,1,.5.8C42,121.6,39.5,124.5,38.2,125.7Zm5.6-5,.6.9L35.9,130c1.2-2.1,2-2.7,4.7-5.5C41.3,123.8,42.9,121.7,43.8,120.7Zm.9,1.4.6.9-9.1,10.5L34.8,135l-.4-.3C35.8,132.7,43,124.4,44.7,122.1Zm1.1,1.7.5.9c-2.4,2.8-10,12.3-11.9,14.4l-.5-.3A130.5,130.5,0,0,1,45.8,123.8Zm.8,1.3h0l.6.8c-1.9,2.2-12.4,15.2-12.8,15.6C35.4,139.4,45.3,126.9,46.6,125.1Zm.7,1.1.9,1.2c-3.2,3.6-11.1,13-14.1,16.2l-.4-.2ZM33.8,147.4a7.2,7.2,0,0,1,1.1-3c2.1-2.7,4.4-5.3,6.5-7.9l7.1-8.7,1.5,2C46.3,133.4,38.3,145.2,33.8,147.4ZM46,144.5l7.6-10.2.9,1.1L50,142.2Zm4.8-2.7,4-6,1.1,1.1-2.3,3.6Zm3.4-1.6,2-2.9,1.6,1.7Zm14.2-3.8c-2.5.5-6.2,1.2-10.2,2.4.3-1.8-.6-2.7-1.4-3.8-3.3-4.3-7.9-10.9-11.2-15.2s-2.1-7.8-5.5-10.5c-1.4-1.1-2.7-2.7-4.4-3.4-4.4-1.8-8.9-3.1-13.3-4.8-2.8-1-5.4-2.4-8.1-3.6,1.2-2,2.1-3.8,3.2-5.4,2.9-4.2,5.9-8.2,11.3-9.1l4.4-.6c6.9,6.7,14.5,10.8,23.3,12.3a12.5,12.5,0,0,0,2.1.6c4.2,1.2,6.9,1.6,11.1,4.3h0c3.3,3.5,7.5,7.8,10.6,11.2a6.2,6.2,0,0,0,.5,4,11.5,11.5,0,0,0,3.9,4c-.4,2.2.9,6.2-2.2,7.4-3.2-6.9-10.4-9.4-15.7-14l2,3L65.6,117c-.5-1.7-1.1-3.5-1.6-5.3l-.6.2a10.9,10.9,0,0,0,1.3,5.5c1.4,2.9,2.7,5.9,4.1,8.9s2.2,5,3.4,7.5c.4.7,1,1.7,1.7,1.9Zm5-8.4c.1-1,.4-7,.5-9.2a8.6,8.6,0,0,1,1.8,1.4c-.6,1.1-2.3,12.5-2.4,12.9h-.4C73.1,131.7,73.3,129.3,73.4,128Zm-1.3-.2h-.4c.3-3.1.6-6.2,1-9.8l.8.6C73.1,120.4,72.4,126.8,72.1,127.8Zm-.6-10.1c-.4,2-.9,4.1-1.3,6.1h-.5l1.2-6.3Zm3.7,17.7h-.5c-.2-1.5,1.1-13.3,1.2-15.1l1,.9C76.6,124.2,75.8,131.1,75.2,135.4Zm2.1-13.7,1.2,1.4c-.5,2.1-1.5,9.9-1.7,10.8C76.8,132.7,77.3,124.5,77.3,121.7Zm2.8,12.9.2-3.3h-.2l-.8,3.4H79l.3-5.9-.2-.3-1,6.3h-.6c.2-1.7.9-9.2,1.2-11.6,2.7,3.3,4.7,7.1,7,10.8Zm5.3-4.1,3.9-9.8h1.1L86,131.6Zm1.2,2.2,4.7-11.9h1.1l-5.2,13Zm1.4.7,4.9-12.8,1-.2C92.3,124.2,89.8,131.6,88,133.4Zm2.3-.2c.1-.5,4.2-10.9,5-13.1l1.4-.6h0c-1.1,2.2-3.8,10.3-4.3,11.3S91.2,133.3,90.3,133.2Zm1.7,0c.8-1.8,3.9-11.3,4.8-13.8s2.4-3.1,3.7-5.2h.2c-1.2,2.5-7.3,18-8.1,19.3Zm5.5-7.4c-.6,1.2-1.2,3.5-1.8,4.7a28.3,28.3,0,0,0-1.1,3.1l-.7-.4c.4-1.2,6.4-17,7.1-19h2C101.7,116.3,98,124.8,97.5,125.8Z"/><path class="cls-1" d="M24.8,56.6c.2.9.6,1.8.9,2.7a7,7,0,0,1,.3,1.4C21.3,55.5,17.8,49.1,10.5,47c5,2.3,8.2,6.6,11.2,11.1L10.4,50.2h-.2c.2.2.3.5.6.7,3.5,2.8,6.9,6,10.7,8.4a10.2,10.2,0,0,1,5,7.1c.6,3.3,2.9,5.5,5.2,7.2a45.6,45.6,0,0,1,11,10.9A19.4,19.4,0,0,0,45,87.2l.5-.2a4,4,0,0,0-.2-1.9c-3.1-4.6-6.4-9.1-11.5-11.7S28.2,66,26.5,61.6c-.1-.1,0-.3,0-.4,1.6-2.6.3-5.2-.3-7.7s-1.1-2.5-.4-4.3.9-5,1.2-7.5a12.4,12.4,0,0,0-.3-2.7h-.5c-.9,3.5-1.7,7-2.6,10.3-4.1-2.8-8.2-5.5-12.1-8.5S4.1,34.3,0,30.7c.2.8.2,1,.3,1.1a13.3,13.3,0,0,0,1.4,1.9c4.7,5.7,10.5,10,16.5,14.3C21.2,50.2,24.1,52.5,24.8,56.6Z"/><path class="cls-1" d="M59.1,21.1c.6.6,1.4,1.2,1.6,1.9.8,3.3,1.4,6.7,2.1,10.2l-2.9.9,3-.2a28.5,28.5,0,0,0,2.2,3.9c1.8,1.9,3.9,3.6,5.8,5.5a5.6,5.6,0,0,1,1.7,2.4c2.3,7.5,4.4,15,6.5,22.5a3.3,3.3,0,0,1,0,1.7h0V70h.1c2,4,4,7.9,6.1,11.8,1.2,2.1,2.6,4,3.8,6l.4-.2-4.7-7.6.4-.3L90.7,83l.4-.5L88.2,80a15,15,0,0,1-6-8c-2.7-8.3-5.5-16.5-8.3-24.8-.1-.4-.4-1.1-.3-1.3s0-2.4-.7-3.4a33.1,33.1,0,0,0-3.2-3.3,15.3,15.3,0,0,1-4.4-7.3c-1.8-6.5-3.5-13.1-5.2-19.6l-.8-.4c.2,3,.5,5.8.8,8.8l-3.8-2.8A14.3,14.3,0,0,0,59.1,21.1Z"/><path class="cls-1" d="M41.3,59.3a5,5,0,0,1-.2,2.7c-1.3,2.7-.7,4.7,1.4,6.7a4.7,4.7,0,0,1,1.4,2.6c1.1,4.9,2,9.9,3,14.8a22.2,22.2,0,0,0,1.4,3.2L49,89c-1.4-6.1-2.8-12.3-4.3-18.4l1.7.5A43.7,43.7,0,0,0,43.9,67a3.2,3.2,0,0,1-.5-3.9c.9-1.6.6-3.1.2-4.8-1.5-5.7-2.8-11.4-4.2-17.2-.5-2-.9-4-1.3-6h-.5a12,12,0,0,0,0,1.9C38.8,44.5,40.1,51.9,41.3,59.3Z"/><path class="cls-1" d="M166.2,8.3a10.8,10.8,0,0,0,3.1.7c1.4.1,2.8-.1,4.2.1s2.3.5,2.8,1.3a5.9,5.9,0,0,0,5.4,2.9,2.1,2.1,0,0,1,2.4,2.1l.6,7.3c.2,2.1.4,4.2.7,6.8l.6-1.1c.7-3.3,1.9-6.5,2-9.7a36.4,36.4,0,0,0-1.3-10.3c-.6-2.2-2.1-4.3-3.4-6.4h-.1A5,5,0,0,0,181.8.3V.2l-.7-.2a16.2,16.2,0,0,0-4.1,1.3h.7l-2.8,7.2-1.4-.2,2.2-6.3,1.1-.7-1.6.3-5.9,2-1.4.5a24.1,24.1,0,0,0,4.8-.7c-.6,1.3-1.6,3.9-1.9,4.8Zm19.1,3.4h-2.5l1.9-5C185.4,8.3,186,9.9,185.3,11.7Zm-1.9-7.5.4.6.4.8-2.4,6.1h-.4l-1.3-.3h.5Zm-1.5-2.3a9.2,9.2,0,0,1,.9,1.3c-1,2.4-2.8,7.1-3.2,8l-1.2-.4v-.4l1.2.4-1-.8Zm-.7-.7-3.4,8.4L176.6,9l3.1-8A1.8,1.8,0,0,1,181.2,1.2Zm-3.1.1.9-.2c-.8,2-2.3,6.4-2.8,7.8l-1.1-.3Zm-4.9,1.9,1.5-.6-2.3,5.8h-.8Z"/><path class="cls-1" d="M104.7,137.9c-.4-.8-4.4-1-5.5-.3-3.4,2.2-7.1,4.2-8,8.8a.7.7,0,0,1-.1.5c-1.1,1.6-.6,2.8,1,4l2,.7c5.7,2.1,10.7-1.6,12.3-6C107.4,142.7,105.9,140.3,104.7,137.9ZM93.8,149.1c-.2.4-.9.5-1.3.8s-.5-1-.4-1.3,1.2-3.9,2.4-5.3a20.3,20.3,0,0,1,5-4.2,13.6,13.6,0,0,1,3.6-1c.1.2.2.3.2.5-3.6,1.3-5.8,4.3-7.9,7.3A31.8,31.8,0,0,0,93.8,149.1Zm9.9-1.4c-2.1,2.5-5.1,1.9-8.4,1.2a25.9,25.9,0,0,1,8.5-10.2C106,141.8,106.1,145,103.7,147.7Z"/><path class="cls-1" d="M206.3,34.7c.7-6.4,2.4-12.5,1-18.6-.8,5.4-1.5,11.2-2.6,16.8-.6,3.4-1.4,3.6-4.7,3.9s-6.8.5-10,1.7c-5.3,2-10.3,4.7-15.4,7.1,2.3.4,4.5-.4,6.7-1.4A73.8,73.8,0,0,1,193,39.4c2.6-.8,5.5-.7,8.3-1s5.3-1.8,5.7-3.7h-.7Z"/><path class="cls-1" d="M119.3,110.4l3.3-.4c2.7-.4,4.4-2.2,5.2-5.4a6.1,6.1,0,0,0-2.6-6.3,3.7,3.7,0,0,0-3.1,0,76.5,76.5,0,0,0-6.2,6.5,2.9,2.9,0,0,0-.1,3.9,14.8,14.8,0,0,0,3.2,2.1Zm3.9-10.9a4.4,4.4,0,0,1,2.5,5.3c-.5,2.6-2.2,4-5.2,4.1Zm-2.3,3.5c-.4,1.2-.6,2.1-.9,3s-.5,1.9-.8,2.8C117.3,107,117.7,105.4,120.9,103Z"/><path class="cls-1" d="M122.4,139l-1.3-.3c-2.2.2-4.5,0-6.6.6s-3,1.1-2.2,4.1a4.2,4.2,0,0,0,.3,1.3c1.3,2.1,2.5,4.4,4.2,6s8.3.3,9.7-1.8a4.5,4.5,0,0,0,.4-3.2,24.8,24.8,0,0,0-2.6-4h0C125,139.1,125,139.2,122.4,139Zm-5.9,8.8c-1.3-2.1-2.4-4.2-3.7-6.4,3-2.4,6.3-1.3,9.5-2.2.1,3.6-2.1,6-3.6,8.7C118.2,149,117,148.7,116.5,147.8Zm9.5-2.4c.8,1.9.6,3.1-1.4,3.8a39.6,39.6,0,0,1-5.5,1.3c1.2-2.6,2.4-5.1,3.7-7.5.3-.6,1-.9,1.5-1.3C124.8,142.9,125.4,144.2,126,145.4Z"/><path class="cls-1" d="M88.2,91.5c-.7,1.3-.4,2.5.9,3s5.4,1.9,8.1,2.8,3.3-.3,3.9-2.2c1.2-3.9-3.2-9-6.8-8S89.5,89,88.2,91.5ZM94.1,88c3.1-.8,6.4,3.3,5.5,6.2-.1.6-.9,1-1.5,1.6-1.1-2.6-2.3-4.5-4.4-5.8a3.6,3.6,0,0,1-1-1.1A6.7,6.7,0,0,1,94.1,88ZM90,92.8c.6-.9,1.4-2.3,2.1-2.3s2,1,2.6,1.9S97.2,94,96,95.7l-6.3-1.9C89.8,93.2,89.8,92.9,90,92.8Z"/><path class="cls-1" d="M75.3,59.4c-.8-1.8-19.6-17.8-24.1-20.7l-.4.5,24,20.7Z"/><path class="cls-1" d="M72.9,27.5a3.1,3.1,0,0,0,2-1.9,5.5,5.5,0,0,0-1.5-6c-.6-.6-1.9-1.3-2.5-1s-1.5,1.6-2.2,2.5a39,39,0,0,0,1.8,5.2A2.9,2.9,0,0,0,72.9,27.5Zm-.8-7.3c1.8,1.4,1.9,3.2,1.6,5.1s-.7,1.2-1.5.4S71.1,21.5,72.1,20.2Z"/><path class="cls-1" d="M106.6,115.8c-.5.7-1.2,1.3-1.3,2-.7,3.4,1.5,8.1,4.9,9.9s6.7,2.9,10.4,1a6.7,6.7,0,0,0-2-.1c-7.2.5-12.3-3.9-12.4-10.9a3.4,3.4,0,0,1,.7-1.5Z"/><path class="cls-1" d="M88.4,72.6a3.3,3.3,0,0,1,1,.6c1.3-4.2,1.1-5.8-.9-7.9-.6-.6-1.7-1.1-2.2-.9a2.9,2.9,0,0,0-1.6,2.1A5.5,5.5,0,0,0,88.4,72.6Zm-2.9-6.1c.1-.4.3-1.1.6-1.1a1.9,1.9,0,0,1,1.3.3c1.8,1.4,1.6,3.3,1.3,5.4C86.3,70.3,85.2,68.7,85.5,66.5Z"/><path class="cls-1" d="M52.5,121a11.3,11.3,0,0,0-2.9-1.5v.5c4.7,5,12.6,12.2,14.1,15,.8.6-1.5-2.8-2.5-4C58.3,127.7,55.5,124.3,52.5,121Z"/><path class="cls-1" d="M130.4,134.5c2.3-7,4.7-14,7-20.9C134.3,120.3,131.4,127.1,130.4,134.5Z"/><path class="cls-1" d="M64,54.5,79.1,69.8a18.9,18.9,0,0,0-.9-2.1C74.6,62.1,68.6,59.1,64,54.5Z"/><path class="cls-1" d="M68.8,67.2l12.6,9.5.4-.5L69.2,66.8Z"/><path class="cls-1" d="M60,82l.2-.3L52,75.1l-.4.4Z"/><path class="cls-1" d="M128.1,132.4l.6.2,3-8.7-.5-.2Z"/><path class="cls-1" d="M176.7,1.4Z"/><path class="cls-1" d="M89,113.9a7,7,0,0,0,6.6-.6,2.9,2.9,0,0,0,.6-2.3c0-.3-1-.5-1.6-.8l-.3.6.8,1.4-.2.2-.6-.6-1.7,1.6-.4-.3a7.6,7.6,0,0,0,.1-1.7L91,113.3l-.3-.3a18.3,18.3,0,0,1,.6-1.9l-2.2,1.7-1.3-.9,2.2-1.2c-1.5-.4-3.1,1.8-4.3-.6l3.5-1.4c-1.2-.5-3.7-.2-3.8.7a4.2,4.2,0,0,0,1,3A7.4,7.4,0,0,0,89,113.9Z"/><path class="cls-1" d="M105.3,155a3.2,3.2,0,0,0,2.4.2c.8-.3,1.5-1.1,1.4-1.6s-.3-.9-.7-1-2.9-.8-3.9.3S104.8,154.7,105.3,155Zm.2-1.7a3.9,3.9,0,0,1,2.4,0c.7.2,0,1-.4,1.1s-1.7.2-2-.3S105,153.5,105.5,153.3Z"/><path class="cls-1" d="M161.3,150.6c-.4-1.7-1.5-3-6.6-5.5s-20.3-6.8-28.8-7c15,2.4,22.3,5.2,27.8,7.3S160,148.8,161.3,150.6Z"/><path class="cls-1" d="M145.2,153.8c-1.2-1.6-5.9-4.1-14.8-4.6C137.8,150.6,142.7,152.3,145.2,153.8Z"/><path class="cls-1" d="M90.5,149.7a38.1,38.1,0,0,0-18.7,3.4A91.2,91.2,0,0,1,90.5,149.7Z"/><path class="cls-1" d="M110.9,119.8c-1.8-.1-2.7.2-2.6.8s1.4,1.3,3-.2c-.6.1-2.2,1.2-2.4.3S110.9,119.8,110.9,119.8Z"/><path class="cls-1" d="M113.7,121.8c-2,.7-2.1,2-1.6,2.3s1.5,0,1.9-2.1c-.3.8-.8,2.3-1.6,1.7S113.7,121.8,113.7,121.8Z"/><path class="cls-1" d="M116.3,125.8c1.1-.2,1.2-1,.1-2.8.3.8.9,2.3,0,2.3s-.3-2.3-.3-2.3C115,124.9,115.8,125.9,116.3,125.8Z"/></g></g></svg>